<svg xmlns="http://www.w3.org/2000/svg" width="393" height="1000" viewBox="0 0 393 1000" role="img" aria-labelledby="title desc">
<title id="title">Friends directory mobile mockup</title>
<desc id="desc">Mobile Ventura Friends page showing account holders and every shared tab by name.</desc>
<rect width="393" height="1000" fill="#edf1e4"/>
<rect width="393" height="64" fill="#f7f5ec"/><path d="M0 64h393" stroke="#ccd5bd"/>
<text x="18" y="40" font-family="Space Grotesk, sans-serif" font-size="24" font-weight="600" fill="#7a611f">ventura</text>
<text x="351" y="39" font-family="IBM Plex Sans, sans-serif" font-size="22" fill="#2f4a3c">☰</text>
<text x="20" y="121" font-family="Space Grotesk, sans-serif" font-size="30" font-weight="600" fill="#1e2a22">Friends</text>
<text x="20" y="149" font-family="IBM Plex Sans, sans-serif" font-size="14" fill="#4b5a4f">People you share tabs with</text>
<text x="20" y="202" font-family="Space Grotesk, sans-serif" font-size="18" font-weight="600" fill="#1e2a22">Your friends</text>
<text x="331" y="201" font-family="IBM Plex Mono, monospace" font-size="12" fill="#4b5a4f">3</text>
<g font-family="IBM Plex Sans, sans-serif">
<rect x="16" y="224" width="361" height="266" rx="12" fill="#f7f5ec" stroke="#ccd5bd"/>
<circle cx="52" cy="264" r="20" fill="#dbe4d6"/><text x="52" y="270" text-anchor="middle" font-size="14" font-weight="600" fill="#2f4a3c">AM</text>
<text x="84" y="259" font-size="18" font-weight="600" fill="#1e2a22">Alex Morgan</text>
<text x="84" y="280" font-size="12" fill="#4b5a4f">3 shared tabs</text>
<path d="M32 303h329" stroke="#ccd5bd"/><text x="32" y="330" font-size="12" font-weight="600" fill="#4b5a4f">TABS YOU SHARE</text>
<rect x="32" y="344" width="329" height="44" fill="#fffdf6" stroke="#ccd5bd"/><text x="46" y="371" font-size="14" fill="#2f4a3c">Cottage Weekend</text><text x="336" y="372" font-size="18" fill="#2f4a3c">›</text>
<rect x="32" y="388" width="329" height="44" fill="#fffdf6" stroke="#ccd5bd"/><text x="46" y="415" font-size="14" fill="#2f4a3c">Household</text><text x="336" y="416" font-size="18" fill="#2f4a3c">›</text>
<rect x="32" y="432" width="329" height="44" fill="#fffdf6" stroke="#ccd5bd"/><text x="46" y="459" font-size="14" fill="#2f4a3c">Friday Dinner</text><text x="336" y="460" font-size="18" fill="#2f4a3c">›</text>
<rect x="16" y="503" width="361" height="222" rx="12" fill="#f7f5ec" stroke="#ccd5bd"/>
<circle cx="52" cy="543" r="20" fill="#e9dfc5"/><text x="52" y="549" text-anchor="middle" font-size="14" font-weight="600" fill="#7a611f">JL</text>
<text x="84" y="538" font-size="18" font-weight="600" fill="#1e2a22">Jordan Lee</text>
<text x="84" y="559" font-size="12" fill="#4b5a4f">2 shared tabs</text>
<path d="M32 582h329" stroke="#ccd5bd"/><text x="32" y="609" font-size="12" font-weight="600" fill="#4b5a4f">TABS YOU SHARE</text>
<rect x="32" y="623" width="329" height="44" fill="#fffdf6" stroke="#ccd5bd"/><text x="46" y="650" font-size="14" fill="#2f4a3c">Cottage Weekend</text><text x="336" y="651" font-size="18" fill="#2f4a3c">›</text>
<rect x="32" y="667" width="329" height="44" fill="#fffdf6" stroke="#ccd5bd"/><text x="46" y="694" font-size="14" fill="#2f4a3c">Friday Dinner</text><text x="336" y="695" font-size="18" fill="#2f4a3c">›</text>
<rect x="16" y="738" width="361" height="178" rx="12" fill="#f7f5ec" stroke="#ccd5bd"/>
<circle cx="52" cy="778" r="20" fill="#dce5e3"/><text x="52" y="784" text-anchor="middle" font-size="14" font-weight="600" fill="#2f4a3c">SP</text>
<text x="84" y="773" font-size="18" font-weight="600" fill="#1e2a22">Sam Patel</text>
<text x="84" y="794" font-size="12" fill="#4b5a4f">1 shared tab</text>
<path d="M32 817h329" stroke="#ccd5bd"/><text x="32" y="844" font-size="12" font-weight="600" fill="#4b5a4f">TABS YOU SHARE</text>
<rect x="32" y="858" width="329" height="44" fill="#fffdf6" stroke="#ccd5bd"/><text x="46" y="885" font-size="14" fill="#2f4a3c">Household</text><text x="336" y="886" font-size="18" fill="#2f4a3c">›</text>
</g></svg>
