<svg xmlns="http://www.w3.org/2000/svg" width="1100" height="820" viewBox="0 0 1100 820"><rect x="0" y="0" width="1100" height="820" rx="0" fill="#edf1e4"/><rect x="0" y="0" width="226" height="820" rx="0" fill="#f7f5ec"/><text x="32" y="59" font-family="Space Grotesk, Arial, sans-serif" font-size="24" font-weight="600" fill="#2f4a3c">ventura</text><rect x="16" y="113" width="194" height="45" rx="12" fill="#e6ebdc"/><text x="36" y="142" font-family="IBM Plex Sans, Arial, sans-serif" font-size="14" font-weight="600" fill="#2f4a3c">▣   Tabs</text><text x="36" y="200" font-family="IBM Plex Sans, Arial, sans-serif" font-size="14" font-weight="400" fill="#4b5a4f">♙   Friends</text><text x="36" y="254" font-family="IBM Plex Sans, Arial, sans-serif" font-size="14" font-weight="400" fill="#4b5a4f">⚙   Settings</text><text x="275" y="69" font-family="IBM Plex Sans, Arial, sans-serif" font-size="14" font-weight="400" fill="#4b5a4f">Tabs  ›  Weekend getaway</text><text x="275" y="131" font-family="Space Grotesk, Arial, sans-serif" font-size="34" font-weight="600" fill="#1e2a22">Weekend getaway</text><rect x="847" y="98" width="141" height="44" rx="8" fill="#2f4a3c"/><text x="917.5" y="126" font-family="IBM Plex Sans, Arial, sans-serif" font-size="14" font-weight="500" fill="#f7f5ec" text-anchor="middle">＋  Add expense</text><rect x="1000" y="98" width="44" height="44" rx="8" fill="#f7f5ec" stroke="#ccd5bd"/><text x="1022" y="127" font-family="IBM Plex Sans, Arial, sans-serif" font-size="20" font-weight="400" fill="#4b5a4f" text-anchor="middle">⚙</text><circle cx="292" cy="177" r="16" fill="#c7e8f7"/><text x="292" y="181" font-family="IBM Plex Sans, Arial, sans-serif" font-size="11" font-weight="600" fill="#2f4a3c" text-anchor="middle">NQ</text><circle cx="330" cy="177" r="16" fill="#cee9d2"/><text x="330" y="181" font-family="IBM Plex Sans, Arial, sans-serif" font-size="11" font-weight="600" fill="#2f4a3c" text-anchor="middle">P</text><circle cx="368" cy="177" r="16" fill="#eddbf3"/><text x="368" y="181" font-family="IBM Plex Sans, Arial, sans-serif" font-size="11" font-weight="600" fill="#2f4a3c" text-anchor="middle">JD</text><circle cx="406" cy="177" r="16" fill="#f8d8df"/><text x="406" y="181" font-family="IBM Plex Sans, Arial, sans-serif" font-size="11" font-weight="600" fill="#2f4a3c" text-anchor="middle">AM</text><rect x="662" y="211" width="180" height="44" rx="8" fill="#f7f5ec" stroke="#2f4a3c"/><text x="752.0" y="239" font-family="IBM Plex Sans, Arial, sans-serif" font-size="14" font-weight="500" fill="#2f4a3c" text-anchor="middle">Payment history</text><rect x="855" y="211" width="189" height="44" rx="8" fill="#2f4a3c"/><text x="949.5" y="239" font-family="IBM Plex Sans, Arial, sans-serif" font-size="14" font-weight="500" fill="#f7f5ec" text-anchor="middle">Record payment</text><rect x="275" y="282" width="770" height="288" rx="12" fill="#f7f5ec" stroke="#ccd5bd"/><text x="301" y="320" font-family="Space Grotesk, Arial, sans-serif" font-size="18" font-weight="600" fill="#1e2a22">Balances</text><text x="1018" y="319" font-family="IBM Plex Sans, Arial, sans-serif" font-size="14" font-weight="600" fill="#2f4a3c" text-anchor="end">View breakdown  ↗</text><path d="M301 338L1019 338" stroke="#ccd5bd"/><circle cx="317" cy="370" r="16" fill="#c7e8f7"/><text x="317" y="374" font-family="IBM Plex Sans, Arial, sans-serif" font-size="11" font-weight="600" fill="#2f4a3c" text-anchor="middle">NQ</text><text x="344" y="367" font-family="IBM Plex Sans, Arial, sans-serif" font-size="14" font-weight="500" fill="#1e2a22">Nikki Quibin</text><text x="344" y="386" font-family="IBM Plex Sans, Arial, sans-serif" font-size="12" font-weight="400" fill="#4b5a4f">You</text><path d="M301 405L1019 405" stroke="#ccd5bd"/><rect x="301" y="423" width="56" height="26" rx="13" fill="#e3e5e2" stroke="#ccd5bd"/><text x="329" y="441" font-family="IBM Plex Mono, Arial, sans-serif" font-size="12" font-weight="600" fill="#1e2a22" text-anchor="middle">CAD</text><text x="799" y="440" font-family="IBM Plex Sans, Arial, sans-serif" font-size="14" font-weight="400" fill="#4b5a4f">You are owed</text><text x="906" y="440" font-family="IBM Plex Mono, Arial, sans-serif" font-size="14" font-weight="600" fill="#276b46">$84.50</text><rect x="275" y="463" width="770" height="52" rx="0" fill="#fffdf6"/><text x="302" y="496" font-family="IBM Plex Sans, Arial, sans-serif" font-size="14" font-weight="400" fill="#1e2a22">Parker owes you</text><text x="944" y="496" font-family="IBM Plex Mono, Arial, sans-serif" font-size="14" font-weight="600" fill="#276b46">$84.50</text><path d="M301 516L1019 516" stroke="#ccd5bd"/><rect x="301" y="529" width="56" height="26" rx="13" fill="#e3e5e2" stroke="#ccd5bd"/><text x="329" y="547" font-family="IBM Plex Mono, Arial, sans-serif" font-size="12" font-weight="600" fill="#1e2a22" text-anchor="middle">USD</text><text x="801" y="547" font-family="IBM Plex Sans, Arial, sans-serif" font-size="14" font-weight="400" fill="#4b5a4f">You owe</text><text x="905" y="547" font-family="IBM Plex Mono, Arial, sans-serif" font-size="14" font-weight="600" fill="#b23c26">$12.00</text><rect x="275" y="595" width="770" height="180" rx="12" fill="#f7f5ec" stroke="#ccd5bd"/><text x="301" y="635" font-family="Space Grotesk, Arial, sans-serif" font-size="18" font-weight="600" fill="#1e2a22">Expenses</text><text x="390" y="635" font-family="IBM Plex Sans, Arial, sans-serif" font-size="14" font-weight="400" fill="#4b5a4f">8</text><path d="M301 652L1019 652" stroke="#ccd5bd"/><text x="301" y="692" font-family="IBM Plex Sans, Arial, sans-serif" font-size="14" font-weight="500" fill="#1e2a22">Train tickets</text><text x="925" y="692" font-family="IBM Plex Mono, Arial, sans-serif" font-size="14" font-weight="600" fill="#1e2a22">$142.00</text><path d="M301 713L1019 713" stroke="#ccd5bd"/><text x="301" y="749" font-family="IBM Plex Sans, Arial, sans-serif" font-size="14" font-weight="500" fill="#1e2a22">Dinner</text><text x="925" y="749" font-family="IBM Plex Mono, Arial, sans-serif" font-size="14" font-weight="600" fill="#1e2a22">$86.50</text></svg>