<!-- Baked wordmark: public/icon.svg beside "Ventura" set in Space Grotesk
     600 and converted to outlines, so the file needs no webfont. Regenerate
     by hand if the mark or the name changes. -->
<svg xmlns="http://www.w3.org/2000/svg" viewBox="0 0 525.61 120" role="img" aria-label="Ventura">
  <g transform="scale(0.23438)">
  <g shape-rendering="geometricPrecision">
      <!-- Outer pin -->
      <path fill="#2f4a3c"
        d="M256 28
           C158 28 78 105 78 201
           C78 322 194 427 256 492
           C318 427 434 322 434 201
           C434 105 354 28 256 28Z"/>
      <!-- Paper sky / negative space -->
      <circle cx="256" cy="193" r="124" fill="#f7f5ec"/>
      <!-- Mountain foreground -->
      <path fill="#2f4a3c"
        d="M120 247
           L191 185
           Q199 178 207 185
           L256 226
           L305 185
           Q313 178 321 185
           L392 247
           C375 296 326 318 256 318
           C186 318 137 296 120 247Z"/>
      <!-- Winding itinerary path -->
      <path fill="#f7f5ec"
        d="M254 221
           C238 236 220 251 214 266
           C206 286 221 299 248 311
           C275 323 289 335 287 350
           C285 369 263 383 244 399
           C225 416 220 438 226 456
           C231 472 242 485 256 492
           C248 476 246 462 250 448
           C255 431 269 420 284 409
           C306 393 322 375 323 354
           C324 330 306 310 273 296
           C250 286 241 278 245 268
           C248 260 260 250 272 240Z"/>
      <!-- Brass sun -->
      <circle cx="256" cy="151" r="41" fill="#b8933a"/>
    </g>
  </g>
  <path fill="#2f4a3c" transform="translate(144 95)" d="M20.6 0L2 -70L14.4 -70L30.2 -7.7L31.6 -7.7L47.5 -70L59.9 -70L41.2 0Z M88.56 1.4Q81.16 1.4 75.51 -1.75Q69.86 -4.9 66.71 -10.65Q63.56 -16.4 63.56 -24.1L63.56 -25.3Q63.56 -33.1 66.66 -38.8Q69.76 -44.5 75.36 -47.65Q80.96 -50.8 88.26 -50.8Q95.46 -50.8 100.86 -47.65Q106.26 -44.5 109.26 -38.8Q112.26 -33.1 112.26 -25.5L112.26 -21.4L75.16 -21.4Q75.36 -15.6 79.26 -12.1Q83.16 -8.6 88.86 -8.6Q94.46 -8.6 97.16 -11.05Q99.86 -13.5 101.26 -16.6L110.76 -11.7Q109.36 -9 106.71 -5.95Q104.06 -2.9 99.66 -0.75Q95.26 1.4 88.56 1.4ZM75.26 -30.1L100.56 -30.1Q100.16 -35 96.81 -37.9Q93.46 -40.8 88.16 -40.8Q82.66 -40.8 79.36 -37.9Q76.06 -35 75.26 -30.1Z M124.03 0L124.03 -49.4L135.33 -49.4L135.33 -42.5L137.03 -42.5Q138.33 -45.3 141.73 -47.8Q145.13 -50.3 152.03 -50.3Q157.73 -50.3 162.13 -47.7Q166.53 -45.1 168.98 -40.5Q171.43 -35.9 171.43 -29.6L171.43 0L159.93 0L159.93 -28.7Q159.93 -34.7 156.98 -37.65Q154.03 -40.6 148.63 -40.6Q142.53 -40.6 139.03 -36.55Q135.53 -32.5 135.53 -25L135.53 0Z M202.96 0Q198.16 0 195.31 -2.85Q192.46 -5.7 192.46 -10.6L192.46 -39.9L179.56 -39.9L179.56 -49.4L192.46 -49.4L192.46 -65.3L203.96 -65.3L203.96 -49.4L218.16 -49.4L218.16 -39.9L203.96 -39.9L203.96 -12.5Q203.96 -9.5 206.76 -9.5L216.66 -9.5L216.66 0Z M248.76 0.8Q243.06 0.8 238.66 -1.75Q234.26 -4.3 231.86 -8.95Q229.46 -13.6 229.46 -19.8L229.46 -49.4L240.86 -49.4L240.86 -20.7Q240.86 -14.7 243.81 -11.8Q246.76 -8.9 252.16 -8.9Q258.26 -8.9 261.81 -12.9Q265.36 -16.9 265.36 -24.4L265.36 -49.4L276.76 -49.4L276.76 0L265.56 0L265.56 -6.9L263.86 -6.9Q262.56 -4.2 259.11 -1.7Q255.66 0.8 248.76 0.8Z M291.37 0L291.37 -49.4L302.67 -49.4L302.67 -43.7L304.37 -43.7Q305.47 -46.8 308.07 -48.2Q310.67 -49.6 314.27 -49.6L320.27 -49.6L320.27 -39.4L314.07 -39.4Q309.07 -39.4 305.97 -36.75Q302.87 -34.1 302.87 -28.6L302.87 0Z M344.48 1.4Q339.28 1.4 335.08 -0.45Q330.88 -2.3 328.43 -5.8Q325.98 -9.3 325.98 -14.4Q325.98 -19.4 328.43 -22.8Q330.88 -26.2 335.18 -27.95Q339.48 -29.7 344.98 -29.7L359.28 -29.7L359.28 -32.7Q359.28 -36.6 356.88 -39.05Q354.48 -41.5 349.38 -41.5Q344.38 -41.5 341.83 -39.15Q339.28 -36.8 338.48 -33.1L327.88 -36.6Q329.08 -40.5 331.73 -43.7Q334.38 -46.9 338.78 -48.85Q343.18 -50.8 349.58 -50.8Q359.28 -50.8 364.83 -45.95Q370.38 -41.1 370.38 -31.9L370.38 -12.5Q370.38 -9.5 373.18 -9.5L377.38 -9.5L377.38 0L369.28 0Q365.68 0 363.38 -1.8Q361.08 -3.6 361.08 -6.7L361.08 -6.9L359.38 -6.9Q358.78 -5.5 357.28 -3.5Q355.78 -1.5 352.73 -0.05Q349.68 1.4 344.48 1.4ZM346.38 -8Q352.08 -8 355.68 -11.25Q359.28 -14.5 359.28 -20L359.28 -21L345.68 -21Q341.98 -21 339.68 -19.4Q337.38 -17.8 337.38 -14.7Q337.38 -11.7 339.78 -9.85Q342.18 -8 346.38 -8Z"/>
</svg>
